<?xml version="1.0" encoding="UTF-8" standalone="no"?>
<svg width="49px" height="49px" viewBox="0 0 49 49" version="1.1" xmlns="http://www.w3.org/2000/svg" xmlns:xlink="http://www.w3.org/1999/xlink">
    <!-- Generator: Sketch 50.2 (55047) - http://www.bohemiancoding.com/sketch -->
    <title>Points grands Copy</title>
    <desc>Created with Sketch.</desc>
    <defs></defs>
    <g id="Design" stroke="none" stroke-width="1" fill="none" fill-rule="evenodd" opacity="0.349999994">
        <g id="Home-Page" transform="translate(-231.000000, -397.000000)" fill="#FFCC00">
            <g id="Group-2" transform="translate(215.000000, 381.000000)">
                <g id="Group">
                    <g id="Group-3">
                        <g id="Article-1">
                            <g id="Points-grands-Copy" transform="translate(16.000000, 16.000000)">
                                <circle id="Oval-3" cx="2.5" cy="13.5" r="2.5"></circle>
                                <circle id="Oval-3" cx="13.5" cy="13.5" r="2.5"></circle>
                                <circle id="Oval-3" cx="24.5" cy="13.5" r="2.5"></circle>
                                <circle id="Oval-3" cx="35.5" cy="13.5" r="2.5"></circle>
                                <circle id="Oval-3" cx="2.5" cy="24.5" r="2.5"></circle>
                                <circle id="Oval-3" cx="13.5" cy="24.5" r="2.5"></circle>
                                <circle id="Oval-3" cx="24.5" cy="24.5" r="2.5"></circle>
                                <circle id="Oval-3" cx="35.5" cy="24.5" r="2.5"></circle>
                                <circle id="Oval-3" cx="2.5" cy="35.5" r="2.5"></circle>
                                <circle id="Oval-3" cx="13.5" cy="35.5" r="2.5"></circle>
                                <circle id="Oval-3" cx="24.5" cy="35.5" r="2.5"></circle>
                                <circle id="Oval-3" cx="35.5" cy="35.5" r="2.5"></circle>
                                <circle id="Oval-3" cx="2.5" cy="46.5" r="2.5"></circle>
                                <circle id="Oval-3" cx="13.5" cy="46.5" r="2.5"></circle>
                                <circle id="Oval-3" cx="24.5" cy="46.5" r="2.5"></circle>
                                <circle id="Oval-3" cx="35.5" cy="46.5" r="2.5"></circle>
                                <circle id="Oval-3" cx="46.5" cy="13.5" r="2.5"></circle>
                                <circle id="Oval-3" cx="2.5" cy="2.5" r="2.5"></circle>
                                <circle id="Oval-3" cx="13.5" cy="2.5" r="2.5"></circle>
                                <circle id="Oval-3" cx="24.5" cy="2.5" r="2.5"></circle>
                                <circle id="Oval-3" cx="35.5" cy="2.5" r="2.5"></circle>
                                <circle id="Oval-3" cx="46.5" cy="2.5" r="2.5"></circle>
                                <circle id="Oval-3" cx="46.5" cy="24.5" r="2.5"></circle>
                                <circle id="Oval-3" cx="46.5" cy="35.5" r="2.5"></circle>
                                <circle id="Oval-3" cx="46.5" cy="46.5" r="2.5"></circle>
                            </g>
                        </g>
                    </g>
                </g>
            </g>
        </g>
    </g>
</svg>