<?xml version="1.0" encoding="UTF-8" standalone="no"?>
<svg width="88px" height="183px" viewBox="0 0 88 183" version="1.1" xmlns="http://www.w3.org/2000/svg" xmlns:xlink="http://www.w3.org/1999/xlink">
    <!-- Generator: Sketch 50.2 (55047) - http://www.bohemiancoding.com/sketch -->
    <title>Points grands</title>
    <desc>Created with Sketch.</desc>
    <defs></defs>
    <g id="Design" stroke="none" stroke-width="1" fill="none" fill-rule="evenodd" opacity="0.349999994">
        <g id="Article" transform="translate(-179.000000, -96.000000)" fill="#FFCC00">
            <g id="Points-grands" transform="translate(179.000000, 96.000000)">
                <circle id="Oval-3" cx="2.5" cy="2.5" r="2.5"></circle>
                <circle id="Oval-3" cx="13.5" cy="2.5" r="2.5"></circle>
                <circle id="Oval-3" cx="26.5" cy="2.5" r="2.5"></circle>
                <circle id="Oval-3" cx="37.5" cy="2.5" r="2.5"></circle>
                <circle id="Oval-3" cx="50.5" cy="2.5" r="2.5"></circle>
                <circle id="Oval-3" cx="61.5" cy="2.5" r="2.5"></circle>
                <circle id="Oval-3" cx="74.5" cy="2.5" r="2.5"></circle>
                <circle id="Oval-3" cx="85.5" cy="2.5" r="2.5"></circle>
                <circle id="Oval-3" cx="2.5" cy="14.5" r="2.5"></circle>
                <circle id="Oval-3" cx="13.5" cy="14.5" r="2.5"></circle>
                <circle id="Oval-3" cx="26.5" cy="14.5" r="2.5"></circle>
                <circle id="Oval-3" cx="37.5" cy="14.5" r="2.5"></circle>
                <circle id="Oval-3" cx="50.5" cy="14.5" r="2.5"></circle>
                <circle id="Oval-3" cx="61.5" cy="14.5" r="2.5"></circle>
                <circle id="Oval-3" cx="74.5" cy="14.5" r="2.5"></circle>
                <circle id="Oval-3" cx="85.5" cy="14.5" r="2.5"></circle>
                <circle id="Oval-3" cx="2.5" cy="25.5" r="2.5"></circle>
                <circle id="Oval-3" cx="13.5" cy="25.5" r="2.5"></circle>
                <circle id="Oval-3" cx="26.5" cy="25.5" r="2.5"></circle>
                <circle id="Oval-3" cx="37.5" cy="25.5" r="2.5"></circle>
                <circle id="Oval-3" cx="50.5" cy="25.5" r="2.5"></circle>
                <circle id="Oval-3" cx="61.5" cy="25.5" r="2.5"></circle>
                <circle id="Oval-3" cx="74.5" cy="25.5" r="2.5"></circle>
                <circle id="Oval-3" cx="85.5" cy="25.5" r="2.5"></circle>
                <circle id="Oval-3" cx="2.5" cy="37.5" r="2.5"></circle>
                <circle id="Oval-3" cx="13.5" cy="37.5" r="2.5"></circle>
                <circle id="Oval-3" cx="26.5" cy="37.5" r="2.5"></circle>
                <circle id="Oval-3" cx="37.5" cy="37.5" r="2.5"></circle>
                <circle id="Oval-3" cx="50.5" cy="37.5" r="2.5"></circle>
                <circle id="Oval-3" cx="61.5" cy="37.5" r="2.5"></circle>
                <circle id="Oval-3" cx="74.5" cy="37.5" r="2.5"></circle>
                <circle id="Oval-3" cx="85.5" cy="37.5" r="2.5"></circle>
                <circle id="Oval-3" cx="2.5" cy="50.5" r="2.5"></circle>
                <circle id="Oval-3" cx="13.5" cy="50.5" r="2.5"></circle>
                <circle id="Oval-3" cx="26.5" cy="50.5" r="2.5"></circle>
                <circle id="Oval-3" cx="37.5" cy="50.5" r="2.5"></circle>
                <circle id="Oval-3" cx="50.5" cy="50.5" r="2.5"></circle>
                <circle id="Oval-3" cx="61.5" cy="50.5" r="2.5"></circle>
                <circle id="Oval-3" cx="74.5" cy="50.5" r="2.5"></circle>
                <circle id="Oval-3" cx="85.5" cy="50.5" r="2.5"></circle>
                <circle id="Oval-3" cx="2.5" cy="62.5" r="2.5"></circle>
                <circle id="Oval-3" cx="13.5" cy="62.5" r="2.5"></circle>
                <circle id="Oval-3" cx="26.5" cy="62.5" r="2.5"></circle>
                <circle id="Oval-3" cx="37.5" cy="62.5" r="2.5"></circle>
                <circle id="Oval-3" cx="50.5" cy="62.5" r="2.5"></circle>
                <circle id="Oval-3" cx="61.5" cy="62.5" r="2.5"></circle>
                <circle id="Oval-3" cx="74.5" cy="62.5" r="2.5"></circle>
                <circle id="Oval-3" cx="85.5" cy="62.5" r="2.5"></circle>
                <circle id="Oval-3" cx="2.5" cy="73.5" r="2.5"></circle>
                <circle id="Oval-3" cx="13.5" cy="73.5" r="2.5"></circle>
                <circle id="Oval-3" cx="26.5" cy="73.5" r="2.5"></circle>
                <circle id="Oval-3" cx="37.5" cy="73.5" r="2.5"></circle>
                <circle id="Oval-3" cx="50.5" cy="73.5" r="2.5"></circle>
                <circle id="Oval-3" cx="61.5" cy="73.5" r="2.5"></circle>
                <circle id="Oval-3" cx="74.5" cy="73.5" r="2.5"></circle>
                <circle id="Oval-3" cx="85.5" cy="73.5" r="2.5"></circle>
                <circle id="Oval-3" cx="2.5" cy="85.5" r="2.5"></circle>
                <circle id="Oval-3" cx="13.5" cy="85.5" r="2.5"></circle>
                <circle id="Oval-3" cx="26.5" cy="85.5" r="2.5"></circle>
                <circle id="Oval-3" cx="37.5" cy="85.5" r="2.5"></circle>
                <circle id="Oval-3" cx="50.5" cy="85.5" r="2.5"></circle>
                <circle id="Oval-3" cx="61.5" cy="85.5" r="2.5"></circle>
                <circle id="Oval-3" cx="74.5" cy="85.5" r="2.5"></circle>
                <circle id="Oval-3" cx="85.5" cy="85.5" r="2.5"></circle>
                <circle id="Oval-3" cx="2.5" cy="97.5" r="2.5"></circle>
                <circle id="Oval-3" cx="13.5" cy="97.5" r="2.5"></circle>
                <circle id="Oval-3" cx="26.5" cy="97.5" r="2.5"></circle>
                <circle id="Oval-3" cx="37.5" cy="97.5" r="2.5"></circle>
                <circle id="Oval-3" cx="50.5" cy="97.5" r="2.5"></circle>
                <circle id="Oval-3" cx="61.5" cy="97.5" r="2.5"></circle>
                <circle id="Oval-3" cx="74.5" cy="97.5" r="2.5"></circle>
                <circle id="Oval-3" cx="85.5" cy="97.5" r="2.5"></circle>
                <circle id="Oval-3" cx="2.5" cy="109.5" r="2.5"></circle>
                <circle id="Oval-3" cx="13.5" cy="109.5" r="2.5"></circle>
                <circle id="Oval-3" cx="26.5" cy="109.5" r="2.5"></circle>
                <circle id="Oval-3" cx="37.5" cy="109.5" r="2.5"></circle>
                <circle id="Oval-3" cx="50.5" cy="109.5" r="2.5"></circle>
                <circle id="Oval-3" cx="61.5" cy="109.5" r="2.5"></circle>
                <circle id="Oval-3" cx="74.5" cy="109.5" r="2.5"></circle>
                <circle id="Oval-3" cx="85.5" cy="109.5" r="2.5"></circle>
                <circle id="Oval-3" cx="2.5" cy="120.5" r="2.5"></circle>
                <circle id="Oval-3" cx="13.5" cy="120.5" r="2.5"></circle>
                <circle id="Oval-3" cx="26.5" cy="120.5" r="2.5"></circle>
                <circle id="Oval-3" cx="37.5" cy="120.5" r="2.5"></circle>
                <circle id="Oval-3" cx="50.5" cy="120.5" r="2.5"></circle>
                <circle id="Oval-3" cx="61.5" cy="120.5" r="2.5"></circle>
                <circle id="Oval-3" cx="74.5" cy="120.5" r="2.5"></circle>
                <circle id="Oval-3" cx="85.5" cy="120.5" r="2.5"></circle>
                <circle id="Oval-3" cx="2.5" cy="132.5" r="2.5"></circle>
                <circle id="Oval-3" cx="13.5" cy="132.5" r="2.5"></circle>
                <circle id="Oval-3" cx="26.5" cy="132.5" r="2.5"></circle>
                <circle id="Oval-3" cx="37.5" cy="132.5" r="2.5"></circle>
                <circle id="Oval-3" cx="50.5" cy="132.5" r="2.5"></circle>
                <circle id="Oval-3" cx="61.5" cy="132.5" r="2.5"></circle>
                <circle id="Oval-3" cx="74.5" cy="132.5" r="2.5"></circle>
                <circle id="Oval-3" cx="85.5" cy="132.5" r="2.5"></circle>
                <circle id="Oval-3" cx="2.5" cy="145.5" r="2.5"></circle>
                <circle id="Oval-3" cx="13.5" cy="145.5" r="2.5"></circle>
                <circle id="Oval-3" cx="26.5" cy="145.5" r="2.5"></circle>
                <circle id="Oval-3" cx="37.5" cy="145.5" r="2.5"></circle>
                <circle id="Oval-3" cx="50.5" cy="145.5" r="2.5"></circle>
                <circle id="Oval-3" cx="61.5" cy="145.5" r="2.5"></circle>
                <circle id="Oval-3" cx="74.5" cy="145.5" r="2.5"></circle>
                <circle id="Oval-3" cx="85.5" cy="145.5" r="2.5"></circle>
                <circle id="Oval-3" cx="2.5" cy="157.5" r="2.5"></circle>
                <circle id="Oval-3" cx="13.5" cy="157.5" r="2.5"></circle>
                <circle id="Oval-3" cx="26.5" cy="157.5" r="2.5"></circle>
                <circle id="Oval-3" cx="37.5" cy="157.5" r="2.5"></circle>
                <circle id="Oval-3" cx="50.5" cy="157.5" r="2.5"></circle>
                <circle id="Oval-3" cx="61.5" cy="157.5" r="2.5"></circle>
                <circle id="Oval-3" cx="74.5" cy="157.5" r="2.5"></circle>
                <circle id="Oval-3" cx="85.5" cy="157.5" r="2.5"></circle>
                <circle id="Oval-3" cx="2.5" cy="168.5" r="2.5"></circle>
                <circle id="Oval-3" cx="13.5" cy="168.5" r="2.5"></circle>
                <circle id="Oval-3" cx="26.5" cy="168.5" r="2.5"></circle>
                <circle id="Oval-3" cx="37.5" cy="168.5" r="2.5"></circle>
                <circle id="Oval-3" cx="50.5" cy="168.5" r="2.5"></circle>
                <circle id="Oval-3" cx="61.5" cy="168.5" r="2.5"></circle>
                <circle id="Oval-3" cx="74.5" cy="168.5" r="2.5"></circle>
                <circle id="Oval-3" cx="85.5" cy="168.5" r="2.5"></circle>
                <circle id="Oval-3" cx="2.5" cy="180.5" r="2.5"></circle>
                <circle id="Oval-3" cx="13.5" cy="180.5" r="2.5"></circle>
                <circle id="Oval-3" cx="26.5" cy="180.5" r="2.5"></circle>
                <circle id="Oval-3" cx="37.5" cy="180.5" r="2.5"></circle>
                <circle id="Oval-3" cx="50.5" cy="180.5" r="2.5"></circle>
                <circle id="Oval-3" cx="61.5" cy="180.5" r="2.5"></circle>
                <circle id="Oval-3" cx="74.5" cy="180.5" r="2.5"></circle>
                <circle id="Oval-3" cx="85.5" cy="180.5" r="2.5"></circle>
            </g>
        </g>
    </g>
</svg>