<?xml version="1.0" encoding="UTF-8" standalone="no"?>
<svg width="19px" height="18px" viewBox="0 0 19 18" version="1.1" xmlns="http://www.w3.org/2000/svg" xmlns:xlink="http://www.w3.org/1999/xlink">
    <!-- Generator: Sketch 50.2 (55047) - http://www.bohemiancoding.com/sketch -->
    <title>github</title>
    <desc>Created with Sketch.</desc>
    <defs></defs>
    <g id="Design" stroke="none" stroke-width="1" fill="none" fill-rule="evenodd">
        <g id="Home-Page" transform="translate(-1131.000000, -23.000000)" fill="#333333" fill-rule="nonzero">
            <g id="Menu-2" transform="translate(1131.500000, 23.000000)">
                <g id="github">
                    <path d="M9,-4.4408921e-17 C4.02943725,-2.04281037e-15 3.99680289e-16,4.02943725 0,9 C3.99680289e-16,12.978 2.583,16.353 6.156,17.55 C6.606,17.622 6.75,17.343 6.75,17.1 C6.75,16.893 6.75,16.326 6.75,15.579 C4.257,16.119 3.726,14.373 3.726,14.373 C3.312,13.329 2.727,13.05 2.727,13.05 C1.908,12.492 2.79,12.51 2.79,12.51 C3.69,12.573 4.167,13.437 4.167,13.437 C4.95,14.805 6.273,14.4 6.786,14.184 C6.867,13.599 7.101,13.203 7.353,12.978 C5.355,12.753 3.258,11.979 3.258,8.55 C3.258,7.551 3.6,6.75 4.185,6.111 C4.095,5.886 3.78,4.95 4.275,3.735 C4.275,3.735 5.031,3.492 6.75,4.653 C7.461,4.455 8.235,4.356 9,4.356 C9.765,4.356 10.539,4.455 11.25,4.653 C12.969,3.492 13.725,3.735 13.725,3.735 C14.22,4.95 13.905,5.886 13.815,6.111 C14.4,6.75 14.742,7.551 14.742,8.55 C14.742,11.988 12.636,12.744 10.629,12.969 C10.953,13.248 11.25,13.797 11.25,14.634 C11.25,15.84 11.25,16.812 11.25,17.1 C11.25,17.343 11.394,17.631 11.853,17.55 C15.426,16.344 18,12.978 18,9 C18,6.61305159 17.0517884,4.32386638 15.363961,2.63603897 C13.6761336,0.948211563 11.3869484,-2.44249065e-16 9,-4.4408921e-17 Z"></path>
                </g>
            </g>
        </g>
    </g>
</svg>