<?xml version="1.0" encoding="UTF-8" standalone="no"?>
<svg width="23px" height="18px" viewBox="0 0 23 18" version="1.1" xmlns="http://www.w3.org/2000/svg" xmlns:xlink="http://www.w3.org/1999/xlink">
    <!-- Generator: Sketch 50.2 (55047) - http://www.bohemiancoding.com/sketch -->
    <title>twitter</title>
    <desc>Created with Sketch.</desc>
    <defs></defs>
    <g id="Design" stroke="none" stroke-width="1" fill="none" fill-rule="evenodd">
        <g id="Home-Page" transform="translate(-1182.000000, -23.000000)" fill="#333333" fill-rule="nonzero">
            <g id="Menu-2" transform="translate(1131.500000, 23.000000)">
                <g id="twitter" transform="translate(50.000000, 0.000000)">
                    <path d="M22.7223529,2.11764706 C21.9070588,2.48823529 21.0282353,2.73176471 20.1176471,2.84823529 C21.0494118,2.28705882 21.7694118,1.39764706 22.1082353,0.328235294 C21.2294118,0.857647059 20.2552941,1.22823529 19.2282353,1.44 C18.3917647,0.529411765 17.2164706,0 15.8823529,0 C13.3941176,0 11.3611765,2.03294118 11.3611765,4.54235294 C11.3611765,4.90235294 11.4035294,5.25176471 11.4776471,5.58 C7.70823529,5.38941176 4.35176471,3.57882353 2.11764706,0.836470588 C1.72588235,1.50352941 1.50352941,2.28705882 1.50352941,3.11294118 C1.50352941,4.69058824 2.29764706,6.08823529 3.52588235,6.88235294 C2.77411765,6.88235294 2.07529412,6.67058824 1.46117647,6.35294118 C1.46117647,6.35294118 1.46117647,6.35294118 1.46117647,6.38470588 C1.46117647,8.58705882 3.02823529,10.4294118 5.10352941,10.8423529 C4.72235294,10.9482353 4.32,11.0011765 3.90705882,11.0011765 C3.62117647,11.0011765 3.33529412,10.9694118 3.06,10.9164706 C3.63176471,12.7058824 5.29411765,14.04 7.29529412,14.0717647 C5.74941176,15.3 3.79058824,16.02 1.65176471,16.02 C1.29176471,16.02 0.931764706,15.9988235 0.571764706,15.9564706 C2.58352941,17.2482353 4.97647059,18 7.53882353,18 C15.8823529,18 20.4670588,11.0752941 20.4670588,5.07176471 C20.4670588,4.87058824 20.4670588,4.68 20.4564706,4.47882353 C21.3458824,3.84352941 22.1082353,3.03882353 22.7223529,2.11764706 Z"></path>
                </g>
            </g>
        </g>
    </g>
</svg>